<?xml version="1.0" encoding="UTF-8" standalone="no"?>
<svg
   version="1.1"
   x="0px"
   y="0px"
   viewBox="0 0 24 30"
   enable-background="new 0 0 24 24"
   xml:space="preserve"
   id="svg8"
   sodipodi:docname="empty.svg"
   inkscape:version="1.1 (c68e22c387, 2021-05-23)"
   xmlns:inkscape="http://www.inkscape.org/namespaces/inkscape"
   xmlns:sodipodi="http://sodipodi.sourceforge.net/DTD/sodipodi-0.dtd"
   xmlns="http://www.w3.org/2000/svg"
   xmlns:svg="http://www.w3.org/2000/svg"><defs
     id="defs12" /><sodipodi:namedview
     id="namedview10"
     pagecolor="#000000"
     bordercolor="#ffffff"
     borderopacity="1"
     inkscape:pageshadow="0"
     inkscape:pageopacity="0"
     inkscape:pagecheckerboard="1"
     showgrid="false"
     inkscape:zoom="18.431917"
     inkscape:cx="9.5486542"
     inkscape:cy="16.276115"
     inkscape:window-width="1920"
     inkscape:window-height="986"
     inkscape:window-x="-11"
     inkscape:window-y="-11"
     inkscape:window-maximized="1"
     inkscape:current-layer="svg8" /><path
     d="m 22.707,3.8249693 c -0.391,-0.391 -1.023,-0.391 -1.414,0 l -4.393,4.393 c -1.354,-1.053 -3.051,-1.686 -4.9,-1.686 -4.418,0 -8,3.5819997 -8,7.9999997 0,1.849 0.633,3.546 1.686,4.9 l -4.393,4.393 c -0.391,0.391 -0.391,1.023 0,1.414 0.195,0.195 0.451,0.293 0.707,0.293 0.256,0 0.512,-0.098 0.707,-0.293 l 4.393,-4.393 c 1.355,1.053 3.051,1.686 4.9,1.686 4.418,0 8,-3.582 8,-8 0,-1.849 -0.633,-3.545 -1.686,-4.8999997 l 4.393,-4.393 c 0.391,-0.391 0.391,-1.023 0,-1.414 z M 6,14.531969 c 0,-3.309 2.691,-5.9999997 6,-5.9999997 1.294,0 2.49,0.416 3.471,1.115 L 7.115,18.002969 C 6.416,17.021969 6,15.825969 6,14.531969 Z m 12,0 c 0,3.309 -2.691,6 -6,6 -1.294,0 -2.49,-0.416 -3.471,-1.115 l 8.356,-8.356 c 0.699,0.981 1.115,2.177 1.115,3.471 z"
     id="path2"
     style="fill:#ffffff" /><text
     x="0"
     y="39"
     fill="#000000"
     font-size="5px"
     font-weight="bold"
     font-family="'Helvetica Neue', Helvetica, Arial-Unicode, Arial, Sans-serif"
     id="text4">Created by Rflor</text><text
     x="0"
     y="44"
     fill="#000000"
     font-size="5px"
     font-weight="bold"
     font-family="'Helvetica Neue', Helvetica, Arial-Unicode, Arial, Sans-serif"
     id="text6">from the Noun Project</text></svg>
